<svg width="1440" height="1392" viewBox="0 0 1440 1392" fill="none" xmlns="http://www.w3.org/2000/svg">
<rect y="776" width="1440" height="616" fill="white"/>
<path fill-rule="evenodd" clip-rule="evenodd" d="M1441 70V778L1150.03 939.877C1105.97 964.384 1054.29 971.353 1005.32 959.388L1 714L1 70H1441Z" fill="url(#paint0_linear)"/>
<g filter="url(#filter0_d)">
<path fill-rule="evenodd" clip-rule="evenodd" d="M705.936 344.476C717.498 304.146 694.193 262.072 653.872 250.48L-2.58464 61.746L-2.59329 751.474L471.309 887.22C511.65 898.775 553.718 875.447 565.282 835.108L705.936 344.476Z" fill="#4250BF"/>
</g>
<g filter="url(#filter1_d)">
<path fill-rule="evenodd" clip-rule="evenodd" d="M-6 0V344.664L1007.46 614.206C1047.67 624.899 1089 601.279 1100.19 561.211L1257 0L-6 0Z" fill="#3947B6"/>
</g>
<defs>
<filter id="filter0_d" x="-132.594" y="-64.2539" width="971.492" height="1088.43" filterUnits="userSpaceOnUse" color-interpolation-filters="sRGB">
<feFlood flood-opacity="0" result="BackgroundImageFix"/>
<feColorMatrix in="SourceAlpha" type="matrix" values="0 0 0 0 0 0 0 0 0 0 0 0 0 0 0 0 0 0 127 0"/>
<feOffset dy="4"/>
<feGaussianBlur stdDeviation="65"/>
<feColorMatrix type="matrix" values="0 0 0 0 0.14902 0 0 0 0 0.2 0 0 0 0 0.588235 0 0 0 1 0"/>
<feBlend mode="normal" in2="BackgroundImageFix" result="effect1_dropShadow"/>
<feBlend mode="normal" in="SourceGraphic" in2="effect1_dropShadow" result="shape"/>
</filter>
<filter id="filter1_d" x="-112" y="-95" width="1475" height="828.777" filterUnits="userSpaceOnUse" color-interpolation-filters="sRGB">
<feFlood flood-opacity="0" result="BackgroundImageFix"/>
<feColorMatrix in="SourceAlpha" type="matrix" values="0 0 0 0 0 0 0 0 0 0 0 0 0 0 0 0 0 0 127 0"/>
<feOffset dy="11"/>
<feGaussianBlur stdDeviation="53"/>
<feColorMatrix type="matrix" values="0 0 0 0 0.164706 0 0 0 0 0.219608 0 0 0 0 0.615686 0 0 0 1 0"/>
<feBlend mode="normal" in2="BackgroundImageFix" result="effect1_dropShadow"/>
<feBlend mode="normal" in="SourceGraphic" in2="effect1_dropShadow" result="shape"/>
</filter>
<linearGradient id="paint0_linear" x1="600.916" y1="636.82" x2="1457.24" y2="533.708" gradientUnits="userSpaceOnUse">
<stop stop-color="#3847B5"/>
<stop offset="1" stop-color="#253194"/>
</linearGradient>
</defs>
</svg>
