<?xml version="1.0" standalone="no"?>
<!DOCTYPE svg PUBLIC "-//W3C//DTD SVG 20010904//EN"
 "http://www.w3.org/TR/2001/REC-SVG-20010904/DTD/svg10.dtd">
<svg version="1.0" xmlns="http://www.w3.org/2000/svg"
 width="1439.000000pt" height="896.000000pt" viewBox="0 0 1439.000000 896.000000"
 preserveAspectRatio="xMidYMid meet">

<g transform="translate(0.000000,896.000000) scale(0.100000,-0.100000)"
fill="#000000" stroke="none">
<path d="M0 5741 l0 -3219 43 -10 c23 -6 2022 -495 4442 -1086 2420 -591 4659
-1139 4975 -1216 316 -78 616 -149 665 -160 287 -59 606 -50 900 27 237 61
283 85 1577 804 673 375 1350 751 1505 837 l283 157 0 3543 0 3542 -7195 0
-7195 0 0 -3219z"/>
</g>
</svg>
