<svg width="320" height="870" viewBox="0 0 320 870" fill="none" xmlns="http://www.w3.org/2000/svg">
<rect x="-201" y="516" width="827" height="354" fill="white"/>
<path fill-rule="evenodd" clip-rule="evenodd" d="M627 110V517.022L489.114 593.81C445.033 618.359 393.302 625.339 344.291 613.352L-200 480.229L-200 110H627Z" fill="url(#paint0_linear)"/>
<g filter="url(#filter0_d)">
<path fill-rule="evenodd" clip-rule="evenodd" d="M195.994 299.279C207.555 258.948 184.25 216.873 143.929 205.28L-202.101 105.789L-202.141 502.141L39.0051 571.219C79.346 582.775 121.414 559.448 132.977 519.109L195.994 299.279Z" fill="#4250BF"/>
</g>
<g filter="url(#filter1_d)">
<path fill-rule="evenodd" clip-rule="evenodd" d="M-205 70V268.238L346.701 415.057C386.913 425.758 428.254 402.132 439.446 362.053L521 70L-205 70Z" fill="#3947B6"/>
</g>
<defs>
<filter id="filter0_d" x="-332.141" y="-20.2104" width="661.097" height="728.388" filterUnits="userSpaceOnUse" color-interpolation-filters="sRGB">
<feFlood flood-opacity="0" result="BackgroundImageFix"/>
<feColorMatrix in="SourceAlpha" type="matrix" values="0 0 0 0 0 0 0 0 0 0 0 0 0 0 0 0 0 0 127 0"/>
<feOffset dy="4"/>
<feGaussianBlur stdDeviation="65"/>
<feColorMatrix type="matrix" values="0 0 0 0 0.14902 0 0 0 0 0.2 0 0 0 0 0.588235 0 0 0 1 0"/>
<feBlend mode="normal" in2="BackgroundImageFix" result="effect1_dropShadow"/>
<feBlend mode="normal" in="SourceGraphic" in2="effect1_dropShadow" result="shape"/>
</filter>
<filter id="filter1_d" x="-311" y="-25" width="938" height="559.631" filterUnits="userSpaceOnUse" color-interpolation-filters="sRGB">
<feFlood flood-opacity="0" result="BackgroundImageFix"/>
<feColorMatrix in="SourceAlpha" type="matrix" values="0 0 0 0 0 0 0 0 0 0 0 0 0 0 0 0 0 0 127 0"/>
<feOffset dy="11"/>
<feGaussianBlur stdDeviation="53"/>
<feColorMatrix type="matrix" values="0 0 0 0 0.164706 0 0 0 0 0.219608 0 0 0 0 0.615686 0 0 0 1 0"/>
<feBlend mode="normal" in2="BackgroundImageFix" result="effect1_dropShadow"/>
<feBlend mode="normal" in="SourceGraphic" in2="effect1_dropShadow" result="shape"/>
</filter>
<linearGradient id="paint0_linear" x1="144.535" y1="435.859" x2="636.344" y2="376.7" gradientUnits="userSpaceOnUse">
<stop stop-color="#3847B5"/>
<stop offset="1" stop-color="#253194"/>
</linearGradient>
</defs>
</svg>
