<svg width="768" height="1392" viewBox="0 0 768 1392" fill="none" xmlns="http://www.w3.org/2000/svg">
<rect x="-243.707" y="776" width="1440" height="616" fill="white"/>
<path fill-rule="evenodd" clip-rule="evenodd" d="M1197.29 70V778L906.319 939.877C862.267 964.384 810.586 971.353 761.617 959.388L-242.707 714L-242.707 70H1197.29Z" fill="url(#paint0_linear)"/>
<g filter="url(#filter0_d)">
<path fill-rule="evenodd" clip-rule="evenodd" d="M462.229 344.476C473.791 304.146 450.486 262.072 410.165 250.48L-246.292 61.746L-246.3 751.474L227.602 887.22C267.943 898.775 310.011 875.447 321.575 835.108L462.229 344.476Z" fill="#4250BF"/>
</g>
<g filter="url(#filter1_d)">
<path fill-rule="evenodd" clip-rule="evenodd" d="M-249.707 0V344.664L763.754 614.206C803.959 624.899 845.29 601.279 856.485 561.211L1013.29 0L-249.707 0Z" fill="#3947B6"/>
</g>
<defs>
<filter id="filter0_d" x="-376.301" y="-64.2539" width="971.492" height="1088.43" filterUnits="userSpaceOnUse" color-interpolation-filters="sRGB">
<feFlood flood-opacity="0" result="BackgroundImageFix"/>
<feColorMatrix in="SourceAlpha" type="matrix" values="0 0 0 0 0 0 0 0 0 0 0 0 0 0 0 0 0 0 127 0"/>
<feOffset dy="4"/>
<feGaussianBlur stdDeviation="65"/>
<feColorMatrix type="matrix" values="0 0 0 0 0.14902 0 0 0 0 0.2 0 0 0 0 0.588235 0 0 0 1 0"/>
<feBlend mode="normal" in2="BackgroundImageFix" result="effect1_dropShadow"/>
<feBlend mode="normal" in="SourceGraphic" in2="effect1_dropShadow" result="shape"/>
</filter>
<filter id="filter1_d" x="-355.707" y="-95" width="1475" height="828.777" filterUnits="userSpaceOnUse" color-interpolation-filters="sRGB">
<feFlood flood-opacity="0" result="BackgroundImageFix"/>
<feColorMatrix in="SourceAlpha" type="matrix" values="0 0 0 0 0 0 0 0 0 0 0 0 0 0 0 0 0 0 127 0"/>
<feOffset dy="11"/>
<feGaussianBlur stdDeviation="53"/>
<feColorMatrix type="matrix" values="0 0 0 0 0.164706 0 0 0 0 0.219608 0 0 0 0 0.615686 0 0 0 1 0"/>
<feBlend mode="normal" in2="BackgroundImageFix" result="effect1_dropShadow"/>
<feBlend mode="normal" in="SourceGraphic" in2="effect1_dropShadow" result="shape"/>
</filter>
<linearGradient id="paint0_linear" x1="357.209" y1="636.82" x2="1213.54" y2="533.708" gradientUnits="userSpaceOnUse">
<stop stop-color="#3847B5"/>
<stop offset="1" stop-color="#253194"/>
</linearGradient>
</defs>
</svg>
